<mxfile host="app.diagrams.net" agent="Mozilla/5.0 (Windows NT 10.0; Win64; x64) AppleWebKit/537.36 (KHTML, like Gecko) Chrome/131.0.0.0 Safari/537.36 Edg/131.0.0.0" version="25.0.1">
  <diagram name="Página-1" id="nvX72cMIMr8YblfEAp6h">
    <mxGraphModel dx="1042" dy="565" grid="1" gridSize="10" guides="1" tooltips="1" connect="1" arrows="1" fold="1" page="1" pageScale="1" pageWidth="827" pageHeight="1169" math="0" shadow="0">
      <root>
        <mxCell id="0" />
        <mxCell id="1" parent="0" />
        <mxCell id="pfKPdkcdcGlEMzx5Z6wo-1" value="" style="ellipse;whiteSpace=wrap;html=1;aspect=fixed;fillColor=#d5e8d4;strokeColor=#82b366;" vertex="1" parent="1">
          <mxGeometry x="110" y="50" width="50" height="50" as="geometry" />
        </mxCell>
        <mxCell id="pfKPdkcdcGlEMzx5Z6wo-5" style="edgeStyle=orthogonalEdgeStyle;rounded=0;orthogonalLoop=1;jettySize=auto;html=1;exitX=0.5;exitY=1;exitDx=0;exitDy=0;exitPerimeter=0;entryX=0.5;entryY=0;entryDx=0;entryDy=0;" edge="1" parent="1" source="pfKPdkcdcGlEMzx5Z6wo-2" target="pfKPdkcdcGlEMzx5Z6wo-4">
          <mxGeometry relative="1" as="geometry" />
        </mxCell>
        <mxCell id="pfKPdkcdcGlEMzx5Z6wo-2" value="Anos&lt;div&gt;Meses&lt;/div&gt;&lt;div&gt;Dias&lt;/div&gt;" style="shape=card;whiteSpace=wrap;html=1;fillColor=#fff2cc;strokeColor=#d6b656;" vertex="1" parent="1">
          <mxGeometry x="95" y="120" width="80" height="70" as="geometry" />
        </mxCell>
        <mxCell id="pfKPdkcdcGlEMzx5Z6wo-3" style="edgeStyle=orthogonalEdgeStyle;rounded=0;orthogonalLoop=1;jettySize=auto;html=1;exitX=0.5;exitY=1;exitDx=0;exitDy=0;entryX=0.5;entryY=0;entryDx=0;entryDy=0;entryPerimeter=0;" edge="1" parent="1" source="pfKPdkcdcGlEMzx5Z6wo-1" target="pfKPdkcdcGlEMzx5Z6wo-2">
          <mxGeometry relative="1" as="geometry" />
        </mxCell>
        <mxCell id="pfKPdkcdcGlEMzx5Z6wo-7" style="edgeStyle=orthogonalEdgeStyle;rounded=0;orthogonalLoop=1;jettySize=auto;html=1;exitX=0.5;exitY=1;exitDx=0;exitDy=0;entryX=0.5;entryY=0;entryDx=0;entryDy=0;" edge="1" parent="1" source="pfKPdkcdcGlEMzx5Z6wo-4" target="pfKPdkcdcGlEMzx5Z6wo-6">
          <mxGeometry relative="1" as="geometry" />
        </mxCell>
        <mxCell id="pfKPdkcdcGlEMzx5Z6wo-4" value="Dias = Idade_Dias(Anos, Meses, Dias)" style="rounded=0;whiteSpace=wrap;html=1;fillColor=#e1d5e7;strokeColor=#9673a6;" vertex="1" parent="1">
          <mxGeometry x="17.5" y="210" width="235" height="30" as="geometry" />
        </mxCell>
        <mxCell id="pfKPdkcdcGlEMzx5Z6wo-9" style="edgeStyle=orthogonalEdgeStyle;rounded=0;orthogonalLoop=1;jettySize=auto;html=1;exitX=0.5;exitY=0;exitDx=0;exitDy=0;entryX=0.5;entryY=0;entryDx=0;entryDy=0;" edge="1" parent="1" source="pfKPdkcdcGlEMzx5Z6wo-6" target="pfKPdkcdcGlEMzx5Z6wo-8">
          <mxGeometry relative="1" as="geometry">
            <Array as="points">
              <mxPoint x="135" y="310" />
              <mxPoint x="135" y="310" />
            </Array>
          </mxGeometry>
        </mxCell>
        <mxCell id="pfKPdkcdcGlEMzx5Z6wo-6" value="&quot; Sua idade em dias é: &quot;Dias" style="shape=document;whiteSpace=wrap;html=1;boundedLbl=1;fillColor=#dae8fc;strokeColor=#6c8ebf;" vertex="1" parent="1">
          <mxGeometry x="75" y="260" width="120" height="80" as="geometry" />
        </mxCell>
        <mxCell id="pfKPdkcdcGlEMzx5Z6wo-8" value="" style="ellipse;whiteSpace=wrap;html=1;aspect=fixed;fillColor=#f8cecc;strokeColor=#b85450;" vertex="1" parent="1">
          <mxGeometry x="110" y="350" width="50" height="50" as="geometry" />
        </mxCell>
        <mxCell id="pfKPdkcdcGlEMzx5Z6wo-10" value="Idade_Dias" style="text;html=1;align=center;verticalAlign=middle;resizable=0;points=[];autosize=1;strokeColor=none;fillColor=none;fontSize=23;fontStyle=1" vertex="1" parent="1">
          <mxGeometry x="240" y="14" width="140" height="40" as="geometry" />
        </mxCell>
        <mxCell id="pfKPdkcdcGlEMzx5Z6wo-11" value="Entrada: int Anos, int Meses, int Dias&lt;div&gt;Saída: Dias&lt;/div&gt;" style="text;html=1;align=center;verticalAlign=middle;resizable=0;points=[];autosize=1;strokeColor=none;fillColor=none;" vertex="1" parent="1">
          <mxGeometry x="200" y="45" width="220" height="40" as="geometry" />
        </mxCell>
        <mxCell id="pfKPdkcdcGlEMzx5Z6wo-15" style="edgeStyle=orthogonalEdgeStyle;rounded=0;orthogonalLoop=1;jettySize=auto;html=1;exitX=0.5;exitY=1;exitDx=0;exitDy=0;entryX=0.5;entryY=0;entryDx=0;entryDy=0;" edge="1" parent="1" source="pfKPdkcdcGlEMzx5Z6wo-13" target="pfKPdkcdcGlEMzx5Z6wo-14">
          <mxGeometry relative="1" as="geometry" />
        </mxCell>
        <mxCell id="pfKPdkcdcGlEMzx5Z6wo-13" value="" style="ellipse;whiteSpace=wrap;html=1;aspect=fixed;fillColor=#d5e8d4;strokeColor=#82b366;" vertex="1" parent="1">
          <mxGeometry x="285" y="94" width="50" height="50" as="geometry" />
        </mxCell>
        <mxCell id="pfKPdkcdcGlEMzx5Z6wo-17" style="edgeStyle=orthogonalEdgeStyle;rounded=0;orthogonalLoop=1;jettySize=auto;html=1;exitX=0.5;exitY=1;exitDx=0;exitDy=0;entryX=0.5;entryY=0;entryDx=0;entryDy=0;" edge="1" parent="1" source="pfKPdkcdcGlEMzx5Z6wo-14" target="pfKPdkcdcGlEMzx5Z6wo-16">
          <mxGeometry relative="1" as="geometry" />
        </mxCell>
        <mxCell id="pfKPdkcdcGlEMzx5Z6wo-14" value="Dias = Dias + (Anos*360) + (Meses*30)" style="rounded=0;whiteSpace=wrap;html=1;fillColor=#e1d5e7;strokeColor=#9673a6;" vertex="1" parent="1">
          <mxGeometry x="202.5" y="164" width="215" height="30" as="geometry" />
        </mxCell>
        <mxCell id="pfKPdkcdcGlEMzx5Z6wo-16" value="return&lt;div&gt;Dias&lt;/div&gt;" style="ellipse;whiteSpace=wrap;html=1;aspect=fixed;fillColor=#f8cecc;strokeColor=#b85450;" vertex="1" parent="1">
          <mxGeometry x="285" y="210" width="50" height="50" as="geometry" />
        </mxCell>
        <mxCell id="pfKPdkcdcGlEMzx5Z6wo-18" value="Main" style="text;html=1;align=center;verticalAlign=middle;resizable=0;points=[];autosize=1;strokeColor=none;fillColor=none;fontSize=23;fontStyle=1" vertex="1" parent="1">
          <mxGeometry x="100" y="10" width="70" height="40" as="geometry" />
        </mxCell>
      </root>
    </mxGraphModel>
  </diagram>
</mxfile>
